<svg height="49" viewBox="0 0 49 49" width="49" xmlns="http://www.w3.org/2000/svg"><g transform="translate(-812 -4627)"><path d="m24.5 0a24.5 24.5 0 1 1 -24.5 24.5 24.5 24.5 0 0 1 24.5-24.5z" fill="#fff" transform="translate(812 4627)"/><circle cx="836.5" cy="4651.5" fill="#fff" r="24.5"/><path d="m832.255 4663.49a6.305 6.305 0 0 1 -6.223-6.371v-10.341a6.3 6.3 0 0 1 6.223-6.369h10.105a6.3 6.3 0 0 1 6.223 6.369v10.341a6.305 6.305 0 0 1 -6.223 6.371zm-4.222-16.712v10.341a4.277 4.277 0 0 0 4.222 4.322h10.105a4.278 4.278 0 0 0 4.223-4.322v-10.341a4.278 4.278 0 0 0 -4.223-4.322h-10.105a4.277 4.277 0 0 0 -4.221 4.322zm3.463 5.171a5.813 5.813 0 1 1 5.811 5.948 5.887 5.887 0 0 1 -5.807-5.948zm2 0a3.811 3.811 0 1 0 3.81-3.9 3.859 3.859 0 0 0 -3.806 3.9zm8.828-5.12a1.526 1.526 0 0 1 0-2.125 1.444 1.444 0 0 1 2.074 0 1.529 1.529 0 0 1 0 2.125 1.444 1.444 0 0 1 -2.074 0z" fill="#3b717e"/></g></svg>