<svg height="49" viewBox="0 0 49 49" width="49" xmlns="http://www.w3.org/2000/svg"><g transform="translate(-667 -4627)"><path d="m24.5 0a24.5 24.5 0 1 1 -24.5 24.5 24.5 24.5 0 0 1 24.5-24.5z" fill="#fff" transform="translate(667 4627)"/><circle cx="691.5" cy="4651.5" fill="#fff" r="24.5"/><path d="m698.553 4660.637v-8.4c0-1.953-.656-3.286-2.3-3.286a2.506 2.506 0 0 0 -2.329 1.766 3.522 3.522 0 0 0 -.15 1.179v8.741h-4.537v-10.323c0-1.89-.06-3.47-.119-4.834h3.941l.209 2.108h.089a5.2 5.2 0 0 1 4.508-2.449c2.985 0 5.225 2.077 5.225 6.541v8.958zm-16.567 0v-15.158h4.537v15.158zm-.119-19.374a2.4 2.4 0 1 1 2.357 2.355 2.292 2.292 0 0 1 -2.358-2.355z" fill="#3b717e"/></g></svg>