<?xml version="1.0" encoding="utf-8"?>
<!-- Generator: Adobe Illustrator 23.0.6, SVG Export Plug-In . SVG Version: 6.00 Build 0)  -->
<svg version="1.1" id="Calque_1" xmlns="http://www.w3.org/2000/svg" xmlns:xlink="http://www.w3.org/1999/xlink" x="0px" y="0px"
	 viewBox="0 0 12 15" style="enable-background:new 0 0 12 15;" xml:space="preserve">
<style type="text/css">
	.st0{fill:#3B717E;}
</style>
<path class="st0" d="M0.5,15C0.2,15,0,14.8,0,14.5v-3.7c0-1.6,1.3-2.9,2.9-3c0.1,0,0.1,0,0.2,0c1.9,0.8,4,0.8,5.8,0
	c0.1,0,0.1,0,0.2,0c1.6,0,2.9,1.4,2.9,3v3.7c0,0.3-0.2,0.5-0.5,0.5c0,0,0,0,0,0L0.5,15z M9.2,12.4v1.5h1.8v-3.2c0-1-0.7-1.8-1.7-1.9
	c-2.1,0.9-4.4,0.9-6.4,0c-1,0.1-1.7,0.9-1.7,1.9v3.2h1.8v-1.5c0-0.3,0.2-0.5,0.5-0.6c0.3,0,0.5,0.2,0.6,0.5c0,0,0,0,0,0v1.5h4.2
	v-1.5c0-0.3,0.2-0.5,0.5-0.5S9.2,12.1,9.2,12.4L9.2,12.4z M2.1,3.8c0-2.2,1.7-3.9,3.8-4c2.2,0,3.9,1.7,4,3.8c0,2.2-1.7,3.9-3.8,4
	c0,0,0,0-0.1,0C3.9,7.7,2.1,6,2.1,3.8L2.1,3.8z M3.2,3.8c0,1.6,1.2,2.9,2.8,2.9c1.6,0,2.9-1.2,2.9-2.8S7.7,1.1,6.1,1.1
	c0,0-0.1,0-0.1,0C4.5,1.1,3.2,2.3,3.2,3.8z"/>
</svg>
