<?xml version="1.0" encoding="utf-8"?>
<!-- Generator: Adobe Illustrator 23.0.6, SVG Export Plug-In . SVG Version: 6.00 Build 0)  -->
<svg version="1.1" id="Calque_1" xmlns="http://www.w3.org/2000/svg" xmlns:xlink="http://www.w3.org/1999/xlink" x="0px" y="0px"
	 viewBox="0 0 15 20" style="enable-background:new 0 0 15 20;" xml:space="preserve">
<style type="text/css">
	.st0{fill:#3B717E;}
</style>
<path class="st0" d="M7.5,0C5.4,0,3.7,1.7,3.8,3.8v1.9H1.9C1.5,5.7,1.2,6,1.2,6.4L0,19.2C0,19.6,0.3,20,0.7,20c0,0,0,0,0,0h13.6
	c0.4,0,0.7-0.4,0.7-0.8c0,0,0,0,0,0L13.8,6.4c0-0.4-0.3-0.6-0.7-0.6h-1.9V3.8C11.3,1.7,9.6,0,7.5,0z M7.5,1.4c1.3,0,2.3,1,2.3,2.3
	c0,0,0,0,0,0v1.9H5.2V3.8C5.1,2.5,6.2,1.5,7.5,1.4C7.5,1.4,7.5,1.4,7.5,1.4z M2.5,7.1h10l1,11.4h-12L2.5,7.1z"/>
</svg>
