<svg height="49" viewBox="0 0 49 49" width="49" xmlns="http://www.w3.org/2000/svg"><g transform="translate(-595 -4627)"><path d="m24.5 0a24.5 24.5 0 1 1 -24.5 24.5 24.5 24.5 0 0 1 24.5-24.5z" fill="#fff" transform="translate(595 4627)"/><circle cx="619.5" cy="4651.5" fill="#fff" r="24.5"/><path d="m616.187 4661.711c9.011 0 13.939-7.834 13.939-14.628q0-.333-.014-.665a10.253 10.253 0 0 0 2.444-2.662 9.415 9.415 0 0 1 -2.813.81 5.124 5.124 0 0 0 2.154-2.844 9.556 9.556 0 0 1 -3.111 1.248 4.786 4.786 0 0 0 -3.576-1.625 5.025 5.025 0 0 0 -4.9 5.14 5.375 5.375 0 0 0 .127 1.173 13.7 13.7 0 0 1 -10.1-5.372 5.322 5.322 0 0 0 -.663 2.583 5.208 5.208 0 0 0 2.18 4.28 4.689 4.689 0 0 1 -2.219-.643v.065a5.087 5.087 0 0 0 3.93 5.04 4.68 4.68 0 0 1 -2.213.088 4.94 4.94 0 0 0 4.576 3.571 9.54 9.54 0 0 1 -6.085 2.2 9.434 9.434 0 0 1 -1.169-.071 13.4 13.4 0 0 0 7.51 2.31" fill="#3b717e"/></g></svg>