<svg height="49" viewBox="0 0 49 49" width="49" xmlns="http://www.w3.org/2000/svg"><g transform="translate(-740 -4627)"><circle cx="764.5" cy="4651.5" fill="#fff" r="24.5"/><path d="m778.622 4645.341a3.363 3.363 0 0 0 -2.346-2.4c-2.069-.567-10.365-.567-10.365-.567s-8.3 0-10.366.567a3.363 3.363 0 0 0 -2.346 2.4 38.809 38.809 0 0 0 0 13.072 3.363 3.363 0 0 0 2.346 2.4c2.069.567 10.366.567 10.366.567s8.3 0 10.365-.567a3.363 3.363 0 0 0 2.346-2.4 38.8 38.8 0 0 0 0-13.072zm-15.422 10.548v-8.023l6.934 4.012z" fill="#3b717e"/></g></svg>