<?xml version="1.0" encoding="utf-8"?>
<!-- Generator: Adobe Illustrator 16.0.0, SVG Export Plug-In . SVG Version: 6.00 Build 0)  -->
<!DOCTYPE svg PUBLIC "-//W3C//DTD SVG 1.1//EN" "http://www.w3.org/Graphics/SVG/1.1/DTD/svg11.dtd">
<svg version="1.1" id="Calque_1" xmlns="http://www.w3.org/2000/svg" xmlns:xlink="http://www.w3.org/1999/xlink" x="0px" y="0px"
	 width="368.392px" height="107.068px" viewBox="0 0 368.392 107.068" enable-background="new 0 0 368.392 107.068"
	 xml:space="preserve">
<path fill="#3D3D3B" d="M191.76,64.489l0.766-0.911c0.695,0.6,1.398,0.942,2.29,0.942c0.788,0,1.284-0.373,1.284-0.911v-0.021
	c0-0.518-0.289-0.798-1.638-1.109c-1.543-0.373-2.413-0.829-2.413-2.165v-0.02c0-1.243,1.036-2.104,2.477-2.104
	c1.056,0,1.895,0.321,2.63,0.912l-0.682,0.963c-0.653-0.486-1.307-0.745-1.97-0.745c-0.745,0-1.182,0.383-1.182,0.859V60.2
	c0,0.56,0.333,0.809,1.731,1.14c1.532,0.373,2.319,0.921,2.319,2.124v0.02c0,1.357-1.066,2.166-2.59,2.166
	C193.675,65.65,192.629,65.266,191.76,64.489"/>
<path fill="#3D3D3B" d="M201.299,58.243h1.181l3.191,7.303h-1.348l-0.735-1.751h-3.43l-0.745,1.751h-1.306L201.299,58.243z
	 M203.122,62.667l-1.255-2.901l-1.241,2.901H203.122z"/>
<polygon fill="#3D3D3B" points="206.91,58.295 208.185,58.295 208.185,64.386 211.997,64.386 211.997,65.546 206.91,65.546 "/>
<path fill="#3D3D3B" d="M212.597,61.941V61.92c0-2.041,1.573-3.75,3.802-3.75c2.227,0,3.781,1.688,3.781,3.729v0.021
	c0,2.041-1.574,3.75-3.803,3.75C214.15,65.67,212.597,63.981,212.597,61.941 M218.843,61.941V61.92c0-1.409-1.024-2.58-2.466-2.58
	c-1.438,0-2.444,1.15-2.444,2.559v0.021c0,1.409,1.025,2.569,2.466,2.569C217.838,64.489,218.843,63.35,218.843,61.941"/>
<polygon fill="#3D3D3B" points="221.72,58.295 222.901,58.295 226.785,63.308 226.785,58.295 228.039,58.295 228.039,65.546 
	226.972,65.546 222.974,60.387 222.974,65.546 221.72,65.546 "/>
<rect x="233.081" y="58.294" fill="#3D3D3B" width="1.273" height="7.251"/>
<polygon fill="#3D3D3B" points="236.292,58.295 237.473,58.295 241.356,63.308 241.356,58.295 242.61,58.295 242.61,65.546 
	241.544,65.546 237.546,60.387 237.546,65.546 236.292,65.546 "/>
<polygon fill="#3D3D3B" points="246.255,59.475 243.954,59.475 243.954,58.295 249.84,58.295 249.84,59.475 247.539,59.475 
	247.539,65.546 246.255,65.546 "/>
<polygon fill="#3D3D3B" points="251.185,58.295 256.562,58.295 256.562,59.435 252.458,59.435 252.458,61.319 256.094,61.319 
	256.094,62.459 252.458,62.459 252.458,64.407 256.613,64.407 256.613,65.546 251.185,65.546 "/>
<path fill="#3D3D3B" d="M258.122,58.295h3.233c0.912,0,1.626,0.268,2.093,0.724c0.382,0.394,0.6,0.933,0.6,1.565v0.021
	c0,1.192-0.714,1.907-1.72,2.197l1.958,2.745h-1.512l-1.782-2.528h-1.595v2.528h-1.275V58.295z M261.261,61.889
	c0.912,0,1.492-0.477,1.492-1.211v-0.022c0-0.776-0.559-1.202-1.502-1.202h-1.854v2.435H261.261z"/>
<polygon fill="#3D3D3B" points="265.61,58.295 266.792,58.295 270.676,63.308 270.676,58.295 271.93,58.295 271.93,65.546 
	270.862,65.546 266.864,60.387 266.864,65.546 265.61,65.546 "/>
<path fill="#3D3D3B" d="M276.362,58.243h1.18l3.191,7.303h-1.348l-0.734-1.751h-3.43l-0.746,1.751h-1.306L276.362,58.243z
	 M278.185,62.667l-1.254-2.901l-1.242,2.901H278.185z"/>
<polygon fill="#3D3D3B" points="282.823,59.475 280.522,59.475 280.522,58.295 286.408,58.295 286.408,59.475 284.107,59.475 
	284.107,65.546 282.823,65.546 "/>
<rect x="287.825" y="58.294" fill="#3D3D3B" width="1.273" height="7.251"/>
<path fill="#3D3D3B" d="M290.715,61.941V61.92c0-2.041,1.573-3.75,3.802-3.75c2.227,0,3.781,1.688,3.781,3.729v0.021
	c0,2.041-1.574,3.75-3.803,3.75C292.269,65.67,290.715,63.981,290.715,61.941 M296.961,61.941V61.92c0-1.409-1.024-2.58-2.466-2.58
	c-1.438,0-2.444,1.15-2.444,2.559v0.021c0,1.409,1.025,2.569,2.466,2.569C295.956,64.489,296.961,63.35,296.961,61.941"/>
<polygon fill="#3D3D3B" points="299.839,58.295 301.02,58.295 304.903,63.308 304.903,58.295 306.157,58.295 306.157,65.546 
	305.091,65.546 301.092,60.387 301.092,65.546 299.839,65.546 "/>
<path fill="#3D3D3B" d="M310.59,58.243h1.18l3.191,7.303h-1.348l-0.734-1.751h-3.43l-0.746,1.751h-1.306L310.59,58.243z
	 M312.411,62.667l-1.253-2.901l-1.242,2.901H312.411z"/>
<polygon fill="#3D3D3B" points="316.202,58.295 317.475,58.295 317.475,64.386 321.288,64.386 321.288,65.546 316.202,65.546 "/>
<path fill="#3D3D3B" d="M192.246,72.794h2.704c2.278,0,3.853,1.564,3.853,3.605v0.02c0,2.042-1.574,3.627-3.853,3.627h-2.704V72.794
	z M193.52,73.954v4.931h1.431c1.522,0,2.517-1.025,2.517-2.445v-0.021c0-1.418-0.994-2.465-2.517-2.465H193.52z"/>
<polygon fill="#3D3D3B" points="200.344,72.794 205.722,72.794 205.722,73.934 201.618,73.934 201.618,75.819 205.255,75.819 
	205.255,76.958 201.618,76.958 201.618,78.906 205.773,78.906 205.773,80.046 200.344,80.046 "/>
<polygon fill="#3D3D3B" points="210.39,72.794 211.664,72.794 211.664,78.885 215.478,78.885 215.478,80.046 210.39,80.046 "/>
<path fill="#3D3D3B" d="M219.37,72.742h1.181l3.191,7.304h-1.348l-0.735-1.751h-3.43l-0.746,1.751h-1.305L219.37,72.742z
	 M221.193,77.166l-1.255-2.901l-1.241,2.901H221.193z"/>
<path fill="#3D3D3B" d="M227.767,76.44v-0.021c0-2.062,1.546-3.75,3.74-3.75c1.337,0,2.146,0.466,2.839,1.129l-0.817,0.943
	c-0.58-0.539-1.202-0.902-2.032-0.902c-1.376,0-2.392,1.14-2.392,2.559v0.021c0,1.419,1.005,2.569,2.392,2.569
	c0.892,0,1.461-0.352,2.084-0.932l0.818,0.828c-0.757,0.788-1.585,1.285-2.943,1.285C229.342,80.169,227.767,78.522,227.767,76.44"
	/>
<path fill="#3D3D3B" d="M235.214,76.44v-0.021c0-2.041,1.574-3.75,3.803-3.75c2.226,0,3.781,1.688,3.781,3.729v0.021
	c0,2.042-1.575,3.75-3.804,3.75C236.769,80.169,235.214,78.48,235.214,76.44 M241.461,76.44v-0.021c0-1.409-1.025-2.58-2.467-2.58
	c-1.438,0-2.443,1.151-2.443,2.559v0.021c0,1.41,1.024,2.569,2.466,2.569C240.455,78.988,241.461,77.85,241.461,76.44"/>
<polygon fill="#3D3D3B" points="244.337,72.794 245.52,72.794 249.402,77.808 249.402,72.794 250.656,72.794 250.656,80.046 
	249.591,80.046 245.592,74.886 245.592,80.046 244.337,80.046 "/>
<path fill="#3D3D3B" d="M252.032,78.989l0.767-0.912c0.694,0.601,1.397,0.944,2.29,0.944c0.787,0,1.284-0.374,1.284-0.912v-0.021
	c0-0.518-0.289-0.798-1.638-1.108c-1.543-0.374-2.413-0.829-2.413-2.166v-0.02c0-1.244,1.036-2.103,2.477-2.103
	c1.056,0,1.895,0.321,2.63,0.912l-0.683,0.962c-0.652-0.487-1.306-0.745-1.969-0.745c-0.746,0-1.182,0.383-1.182,0.859V74.7
	c0,0.56,0.333,0.809,1.731,1.14c1.532,0.373,2.319,0.922,2.319,2.124v0.021c0,1.356-1.066,2.165-2.59,2.165
	C253.948,80.15,252.902,79.766,252.032,78.989"/>
<polygon fill="#3D3D3B" points="260.785,73.975 258.484,73.975 258.484,72.793 264.369,72.793 264.369,73.975 262.068,73.975 
	262.068,80.046 260.785,80.046 "/>
<path fill="#3D3D3B" d="M265.713,72.794h3.233c0.912,0,1.627,0.27,2.093,0.726c0.383,0.393,0.6,0.932,0.6,1.563v0.021
	c0,1.191-0.714,1.907-1.719,2.197l1.957,2.745h-1.512l-1.782-2.527h-1.595v2.527h-1.275V72.794z M268.853,76.389
	c0.911,0,1.491-0.477,1.491-1.212v-0.021c0-0.777-0.559-1.202-1.502-1.202h-1.854v2.435H268.853z"/>
<path fill="#3D3D3B" d="M273.087,76.969v-4.175h1.274v4.123c0,1.347,0.695,2.062,1.833,2.062c1.13,0,1.825-0.674,1.825-2.01v-4.175
	h1.273v4.113c0,2.165-1.223,3.253-3.118,3.253C274.288,80.16,273.087,79.072,273.087,76.969"/>
<path fill="#3D3D3B" d="M280.72,76.44v-0.021c0-2.062,1.545-3.75,3.74-3.75c1.336,0,2.145,0.466,2.838,1.129l-0.817,0.943
	c-0.58-0.539-1.202-0.902-2.031-0.902c-1.377,0-2.393,1.14-2.393,2.559v0.021c0,1.419,1.006,2.569,2.393,2.569
	c0.891,0,1.46-0.352,2.083-0.932l0.818,0.828c-0.757,0.788-1.585,1.285-2.942,1.285C282.294,80.169,280.72,78.522,280.72,76.44"/>
<polygon fill="#3D3D3B" points="290.466,73.975 288.165,73.975 288.165,72.793 294.05,72.793 294.05,73.975 291.75,73.975 
	291.75,80.046 290.466,80.046 "/>
<rect x="295.467" y="72.793" fill="#3D3D3B" width="1.274" height="7.252"/>
<path fill="#3D3D3B" d="M298.357,76.44v-0.021c0-2.041,1.574-3.75,3.803-3.75c2.226,0,3.781,1.688,3.781,3.729v0.021
	c0,2.042-1.575,3.75-3.804,3.75C299.912,80.169,298.357,78.48,298.357,76.44 M304.604,76.44v-0.021c0-1.409-1.025-2.58-2.467-2.58
	c-1.438,0-2.444,1.151-2.444,2.559v0.021c0,1.41,1.025,2.569,2.467,2.569C303.599,78.988,304.604,77.85,304.604,76.44"/>
<polygon fill="#3D3D3B" points="307.481,72.794 308.663,72.794 312.546,77.808 312.546,72.794 313.8,72.794 313.8,80.046 
	312.733,80.046 308.735,74.886 308.735,80.046 307.481,80.046 "/>
<polygon fill="#3D3D3B" points="192.245,87.293 197.623,87.293 197.623,88.434 193.52,88.434 193.52,90.318 197.155,90.318 
	197.155,91.458 193.52,91.458 193.52,93.405 197.675,93.405 197.675,94.544 192.245,94.544 "/>
<polygon fill="#3D3D3B" points="200.966,88.474 198.666,88.474 198.666,87.293 204.552,87.293 204.552,88.474 202.25,88.474 
	202.25,94.545 200.966,94.545 "/>
<path fill="#3D3D3B" d="M209.003,87.293h2.704c2.279,0,3.853,1.564,3.853,3.605v0.021c0,2.041-1.573,3.626-3.853,3.626h-2.704
	V87.293z M210.277,88.454v4.931h1.43c1.521,0,2.517-1.026,2.517-2.445v-0.021c0-1.419-0.995-2.465-2.517-2.465H210.277z"/>
<polygon fill="#3D3D3B" points="217.102,87.293 222.479,87.293 222.479,88.434 218.375,88.434 218.375,90.318 222.011,90.318 
	222.011,91.458 218.375,91.458 218.375,93.405 222.53,93.405 222.53,94.544 217.102,94.544 "/>
<path fill="#3D3D3B" d="M223.553,93.488l0.768-0.912c0.694,0.601,1.397,0.943,2.289,0.943c0.788,0,1.285-0.373,1.285-0.911v-0.021
	c0-0.518-0.29-0.798-1.638-1.109c-1.544-0.373-2.414-0.828-2.414-2.165v-0.02c0-1.243,1.036-2.104,2.477-2.104
	c1.056,0,1.896,0.321,2.631,0.912l-0.683,0.963c-0.653-0.486-1.307-0.745-1.97-0.745c-0.746,0-1.181,0.383-1.181,0.859v0.021
	c0,0.56,0.332,0.809,1.729,1.14c1.534,0.373,2.32,0.921,2.32,2.124v0.02c0,1.357-1.065,2.166-2.59,2.166
	C225.47,94.649,224.423,94.265,223.553,93.488"/>
<rect x="233.848" y="87.293" fill="#3D3D3B" width="1.273" height="7.251"/>
<polygon fill="#3D3D3B" points="237.058,87.293 238.24,87.293 242.123,92.308 242.123,87.293 243.377,87.293 243.377,94.544 
	242.311,94.544 238.313,89.385 238.313,94.544 237.058,94.544 "/>
<polygon fill="#3D3D3B" points="245.239,87.293 250.637,87.293 250.637,88.455 246.514,88.455 246.514,90.433 250.171,90.433 
	250.171,91.592 246.514,91.592 246.514,94.544 245.239,94.544 "/>
<path fill="#3D3D3B" d="M252.033,87.293h3.233c0.912,0,1.626,0.269,2.092,0.725c0.383,0.394,0.601,0.933,0.601,1.565v0.02
	c0,1.192-0.715,1.907-1.72,2.197l1.958,2.745h-1.512l-1.783-2.528h-1.594v2.528h-1.275V87.293z M255.173,90.888
	c0.911,0,1.491-0.476,1.491-1.212v-0.021c0-0.776-0.559-1.201-1.502-1.201h-1.854v2.434H255.173z"/>
<path fill="#3D3D3B" d="M262.091,87.243h1.181l3.191,7.302h-1.348l-0.735-1.75h-3.429l-0.747,1.75h-1.305L262.091,87.243z
	 M263.914,91.666l-1.255-2.901l-1.241,2.901H263.914z"/>
<path fill="#3D3D3B" d="M267.103,93.488l0.767-0.912c0.694,0.601,1.397,0.943,2.289,0.943c0.788,0,1.285-0.373,1.285-0.911v-0.021
	c0-0.518-0.29-0.798-1.639-1.109c-1.543-0.373-2.413-0.828-2.413-2.165v-0.02c0-1.243,1.036-2.104,2.477-2.104
	c1.056,0,1.895,0.321,2.631,0.912l-0.683,0.963c-0.653-0.486-1.307-0.745-1.97-0.745c-0.745,0-1.182,0.383-1.182,0.859v0.021
	c0,0.56,0.333,0.809,1.731,1.14c1.533,0.373,2.319,0.921,2.319,2.124v0.02c0,1.357-1.065,2.166-2.59,2.166
	C269.02,94.649,267.972,94.265,267.103,93.488"/>
<polygon fill="#3D3D3B" points="275.854,88.474 273.554,88.474 273.554,87.293 279.439,87.293 279.439,88.474 277.138,88.474 
	277.138,94.545 275.854,94.545 "/>
<path fill="#3D3D3B" d="M280.783,87.293h3.233c0.911,0,1.626,0.269,2.092,0.725c0.383,0.394,0.6,0.933,0.6,1.565v0.02
	c0,1.192-0.714,1.907-1.719,2.197l1.958,2.745h-1.512l-1.783-2.528h-1.595v2.528h-1.274V87.293z M283.923,90.888
	c0.91,0,1.491-0.476,1.491-1.212v-0.021c0-0.776-0.56-1.201-1.503-1.201h-1.854v2.434H283.923z"/>
<path fill="#3D3D3B" d="M288.156,91.469v-4.175h1.274v4.123c0,1.346,0.695,2.062,1.834,2.062c1.129,0,1.824-0.674,1.824-2.01v-4.175
	h1.273v4.112c0,2.166-1.223,3.253-3.117,3.253C289.358,94.659,288.156,93.572,288.156,91.469"/>
<path fill="#3D3D3B" d="M295.79,90.94v-0.021c0-2.062,1.544-3.75,3.739-3.75c1.336,0,2.146,0.466,2.838,1.129l-0.817,0.943
	c-0.58-0.539-1.201-0.902-2.031-0.902c-1.377,0-2.393,1.14-2.393,2.559v0.021c0,1.419,1.006,2.569,2.393,2.569
	c0.891,0,1.46-0.352,2.083-0.932l0.818,0.828c-0.756,0.787-1.585,1.285-2.942,1.285C297.363,94.669,295.79,93.022,295.79,90.94"/>
<polygon fill="#3D3D3B" points="305.535,88.474 303.235,88.474 303.235,87.293 309.119,87.293 309.119,88.474 306.819,88.474 
	306.819,94.545 305.535,94.545 "/>
<path fill="#3D3D3B" d="M310.351,91.469v-4.175h1.274v4.123c0,1.346,0.694,2.062,1.833,2.062c1.129,0,1.824-0.674,1.824-2.01v-4.175
	h1.273v4.112c0,2.166-1.222,3.253-3.117,3.253C311.552,94.659,310.351,93.572,310.351,91.469"/>
<path fill="#3D3D3B" d="M318.304,87.293h3.233c0.912,0,1.626,0.269,2.093,0.725c0.382,0.394,0.6,0.933,0.6,1.565v0.02
	c0,1.192-0.715,1.907-1.72,2.197l1.958,2.745h-1.512l-1.782-2.528h-1.595v2.528h-1.275V87.293z M321.443,90.888
	c0.911,0,1.491-0.476,1.491-1.212v-0.021c0-0.776-0.559-1.201-1.502-1.201h-1.854v2.434H321.443z"/>
<polygon fill="#3D3D3B" points="325.793,87.293 331.169,87.293 331.169,88.434 327.065,88.434 327.065,90.318 330.702,90.318 
	330.702,91.458 327.065,91.458 327.065,93.405 331.221,93.405 331.221,94.544 325.793,94.544 "/>
<path fill="#3D3D3B" d="M332.244,93.488l0.767-0.912c0.694,0.601,1.398,0.943,2.29,0.943c0.787,0,1.284-0.373,1.284-0.911v-0.021
	c0-0.518-0.29-0.798-1.638-1.109c-1.544-0.373-2.413-0.828-2.413-2.165v-0.02c0-1.243,1.035-2.104,2.476-2.104
	c1.057,0,1.896,0.321,2.631,0.912l-0.683,0.963c-0.652-0.486-1.307-0.745-1.97-0.745c-0.744,0-1.181,0.383-1.181,0.859v0.021
	c0,0.56,0.332,0.809,1.731,1.14c1.532,0.373,2.319,0.921,2.319,2.124v0.02c0,1.357-1.066,2.166-2.59,2.166
	C334.161,94.649,333.114,94.265,332.244,93.488"/>
<path fill="#3D3D3C" d="M196.615,3.624v3.832h1.927c1.408,0,2.299-0.767,2.299-1.906V5.509c0-1.242-0.891-1.885-2.321-1.885H196.615
	 M196.615,14.746h-4.019V0.249h6.235c3.644,0,6.006,1.884,6.006,5.073v0.042c0,3.438-2.631,5.239-6.213,5.239h-2.01V14.746"/>
<path fill="#3D3D3C" d="M212.024,4.908l-1.635,4.101h3.25L212.024,4.908z M220.164,14.746h-4.309l-1.035-2.61h-5.611l-1.036,2.61
	h-4.203l6.15-14.601h3.873L220.164,14.746"/>
<path fill="#3D3D3C" d="M225.593,3.707v3.5h2.672c1.346,0,2.153-0.662,2.153-1.719V5.447c0-1.16-0.85-1.74-2.175-1.74H225.593
	 M234.913,14.746h-4.619l-2.92-4.392h-1.781v4.392h-4.019V0.249h6.855c2.215,0,3.749,0.58,4.722,1.553
	c0.851,0.849,1.284,1.947,1.284,3.376v0.041c0,2.237-1.18,3.707-2.982,4.473L234.913,14.746"/>
<rect x="236.571" y="0.25" fill="#3D3D3C" width="4.017" height="14.497"/>
<path fill="#3D3D3C" d="M248.936,14.994c-2.567,0-4.99-0.807-6.793-2.402l2.238-2.671c1.449,1.138,3.023,1.739,4.7,1.739
	c1.097,0,1.677-0.373,1.677-0.994v-0.042c0-0.621-0.476-0.932-2.463-1.408c-3.086-0.704-5.468-1.573-5.468-4.535V4.639
	c0-2.692,2.133-4.639,5.611-4.639c2.465,0,4.392,0.663,5.965,1.926l-2.009,2.838c-1.325-0.953-2.774-1.429-4.06-1.429
	c-0.973,0-1.449,0.393-1.449,0.932v0.041c0,0.663,0.497,0.952,2.527,1.408c3.313,0.725,5.383,1.802,5.383,4.514v0.043
	C254.796,13.234,252.457,14.994,248.936,14.994"/>
<path fill="#417285" d="M202.258,35.459H191.93v-2.722l4.883-3.728c1.212-0.952,1.698-1.567,1.698-2.35
	c0-0.839-0.578-1.342-1.474-1.342c-0.877,0-1.565,0.521-2.591,1.697l-2.443-2.033c1.398-1.808,2.798-2.796,5.314-2.796
	c2.852,0,4.809,1.696,4.809,4.157v0.038c0,2.088-1.081,3.169-3.019,4.568l-2.238,1.566h5.389V35.459"/>
<path fill="#417285" d="M208.838,35.72c-2.519,0-4.271-0.913-5.557-2.312l2.293-2.274c0.933,0.951,1.902,1.491,3.113,1.491
	c1.026,0,1.66-0.521,1.66-1.323v-0.038c0-0.838-0.746-1.342-2.125-1.342h-1.529l-0.504-1.883l2.983-2.703h-4.979v-2.927h9.416v2.572
	l-3.114,2.685c1.864,0.41,3.375,1.435,3.375,3.673v0.038C213.871,34.023,211.745,35.72,208.838,35.72"/>
<rect x="220.432" y="28.076" fill="#417285" width="6.115" height="3.095"/>
<path fill="#417285" d="M243.398,35.459h-10.327v-2.722l4.884-3.728c1.212-0.952,1.697-1.567,1.697-2.35
	c0-0.839-0.578-1.342-1.474-1.342c-0.876,0-1.565,0.521-2.592,1.697l-2.442-2.033c1.399-1.808,2.798-2.796,5.314-2.796
	c2.852,0,4.81,1.696,4.81,4.157v0.038c0,2.088-1.082,3.169-3.02,4.568l-2.238,1.566h5.388V35.459"/>
<path fill="#417285" d="M249.961,24.851c-0.988,0-1.604,0.653-1.604,1.38v0.037c0,0.82,0.634,1.436,1.604,1.436
	c0.97,0,1.621-0.616,1.621-1.436v-0.037C251.582,25.504,250.968,24.851,249.961,24.851 M249.961,30.034
	c-1.101,0-1.884,0.578-1.884,1.436v0.037c0,0.783,0.671,1.473,1.884,1.473c1.212,0,1.883-0.69,1.883-1.473V31.47
	C251.844,30.612,251.078,30.034,249.961,30.034 M249.961,35.684c-3.133,0-5.352-1.548-5.352-3.822v-0.038
	c0-1.585,0.821-2.536,2.219-3.132c-0.987-0.559-1.771-1.436-1.771-2.853v-0.037c0-2.069,1.976-3.617,4.903-3.617
	c2.927,0,4.922,1.548,4.922,3.617v0.037c0,1.417-0.783,2.294-1.789,2.853c1.323,0.615,2.235,1.492,2.235,3.095v0.037
	C255.329,34.173,253.094,35.684,249.961,35.684"/>
<path fill="#417285" d="M268.377,26.603l-1.473,3.692h2.928L268.377,26.603z M275.704,35.459h-3.878l-0.931-2.349h-5.052
	l-0.934,2.349h-3.785l5.537-13.144h3.487L275.704,35.459"/>
<polygon fill="#417285" points="282.732,35.553 279.377,35.553 274.1,22.409 278.128,22.409 281.092,30.668 284.075,22.409 
	288.027,22.409 "/>
<path fill="#417285" d="M292.91,25.521v3.152h2.406c1.211,0,1.938-0.597,1.938-1.548v-0.037c0-1.044-0.765-1.567-1.957-1.567H292.91
	 M301.301,35.459h-4.157l-2.629-3.952h-1.604v3.952h-3.617v-13.05h6.173c1.994,0,3.373,0.522,4.25,1.398
	c0.765,0.764,1.155,1.752,1.155,3.039v0.038c0,2.012-1.062,3.336-2.684,4.026L301.301,35.459"/>
<rect x="302.791" y="22.41" fill="#417285" width="3.617" height="13.05"/>
<polygon fill="#417285" points="318.73,35.459 308.794,35.459 308.794,22.409 312.411,22.409 312.411,32.29 318.73,32.29 "/>
<path fill="#417285" d="M335.246,35.459h-10.328v-2.722l4.886-3.728c1.212-0.952,1.695-1.567,1.695-2.35
	c0-0.839-0.578-1.342-1.473-1.342c-0.877,0-1.566,0.521-2.592,1.697l-2.442-2.033c1.399-1.808,2.797-2.796,5.314-2.796
	c2.852,0,4.809,1.696,4.809,4.157v0.038c0,2.088-1.081,3.169-3.019,4.568l-2.238,1.566h5.388V35.459"/>
<path fill="#417285" d="M342.722,25.336c-1.436,0-2.387,1.473-2.387,3.56v0.037c0,2.088,0.97,3.58,2.424,3.58
	s2.387-1.473,2.387-3.542v-0.038C345.146,26.846,344.176,25.336,342.722,25.336 M342.722,35.72c-3.711,0-6.021-3.058-6.021-6.749
	v-0.038c0-3.691,2.349-6.786,6.059-6.786s6.022,3.058,6.022,6.749v0.037C348.781,32.625,346.45,35.72,342.722,35.72"/>
<polygon fill="#417285" points="355.883,35.459 352.322,35.459 352.322,25.671 350.121,26.193 349.433,23.397 353.253,22.315 
	355.883,22.315 "/>
<path fill="#417285" d="M363.023,24.851c-0.988,0-1.605,0.653-1.605,1.38v0.037c0,0.82,0.635,1.436,1.605,1.436
	c0.969,0,1.621-0.616,1.621-1.436v-0.037C364.645,25.504,364.03,24.851,363.023,24.851 M363.023,30.034
	c-1.102,0-1.885,0.578-1.885,1.436v0.037c0,0.783,0.672,1.473,1.885,1.473c1.212,0,1.883-0.69,1.883-1.473V31.47
	C364.906,30.612,364.141,30.034,363.023,30.034 M363.023,35.684c-3.134,0-5.352-1.548-5.352-3.822v-0.038
	c0-1.585,0.82-2.536,2.218-3.132c-0.987-0.559-1.771-1.436-1.771-2.853v-0.037c0-2.069,1.976-3.617,4.904-3.617
	c2.927,0,4.922,1.548,4.922,3.617v0.037c0,1.417-0.783,2.294-1.79,2.853c1.322,0.615,2.236,1.492,2.236,3.095v0.037
	C368.392,34.173,366.155,35.684,363.023,35.684"/>
<rect x="191.313" y="44.908" fill="#3D3D3B" width="177.007" height="3.912"/>
<rect x="191.313" y="103.156" fill="#3D3D3B" width="177.007" height="3.912"/>
<polygon fill="#585857" points="61.047,103.177 30.986,56.318 78.115,26.685 108.175,73.545 "/>
<path fill="#417285" d="M7.648,44.925l-2.031-7.832l11.836-3.07L7.648,44.925z M20.021,92.638l-2.784-10.737l19.482,4.551l1.6,1.439
	L20.021,92.638"/>
<polygon fill="#223235" points="70.274,79.602 74.655,74.73 75.563,78.23 "/>
<path fill="#FFDB06" d="M64.429,35.29l-3.267-12.602L17.453,34.023l29.19-32.456L76.03,27.996L64.429,35.29z M94.663,52.481
	L82.947,34.216l15.558,13.993L94.663,52.481 M11.476,63.75L0,53.429l7.648-8.504l4.327,16.687L11.476,63.75 M51.865,100.074
	L38.319,87.891l2.161-0.56l1.796,0.42l0.221-0.943l6.901-1.791l6.665,10.389L51.865,100.074"/>
<path fill="#5A4F22" d="M74.655,74.73l-10.226-39.44l11.6-7.295l6.917,6.221l11.717,18.265L74.655,74.73z M56.063,95.406
	l-6.665-10.389l20.877-5.415L56.063,95.406"/>
<path fill="#4C6634" d="M11.975,61.612L7.647,44.925l9.805-10.901l43.709-11.335l3.267,12.601L39.814,50.767l-23.997-5.604
	L11.975,61.612z M42.497,86.808l2.148-9.198l4.753,7.408L42.497,86.808 M38.319,87.892l-1.6-1.439l3.761,0.879L38.319,87.892"/>
<polygon fill="#24311E" points="49.397,85.018 44.645,77.61 50.342,53.225 39.814,50.767 64.429,35.29 74.656,74.731 70.275,79.602 
	"/>
<polygon fill="#C7C6C7" points="17.236,81.901 7.753,79.685 11.476,63.75 12.851,64.987 "/>
<polygon fill="#38606C" points="36.719,86.453 17.237,81.901 12.851,64.987 "/>
<path fill="#C6AB28" d="M12.85,64.987l-1.374-1.237l0.499-2.138L12.85,64.987z M42.276,87.751l-1.797-0.42l2.017-0.523
	L42.276,87.751"/>
<polygon fill="#415832" points="40.479,87.331 36.718,86.452 12.85,64.986 11.975,61.612 15.817,45.162 39.815,50.767 
	30.986,56.318 44.646,77.609 42.496,86.808 "/>
<polygon fill="#222C1C" points="44.645,77.609 30.986,56.319 39.815,50.767 50.341,53.226 "/>
<rect x="17.496" y="55.857" fill="#FFFFFF" width="6.171" height="18.459"/>
<polygon fill="#FFFFFF" points="25.831,55.858 31.604,55.858 38.171,64.006 38.171,55.858 44.29,55.858 44.29,74.317 38.805,74.317 
	31.948,65.8 31.948,74.317 25.831,74.317 "/>
<polygon fill="#FFFFFF" points="51.124,61.08 45.69,61.08 45.69,55.857 62.727,55.857 62.727,61.08 57.294,61.08 57.294,74.317 
	51.124,74.317 "/>
<polygon fill="#FFFFFF" points="64.126,55.858 79.871,55.858 79.871,60.921 70.191,60.921 70.191,62.793 79.21,62.793 79.21,67.25 
	70.191,67.25 70.191,69.254 80.002,69.254 80.002,74.317 64.126,74.317 "/>
<path fill="#FFFFFF" d="M81.667,55.858h9.019c3.269,0,5.353,0.818,6.645,2.11c1.108,1.107,1.688,2.479,1.688,4.378v0.051
	c0,2.691-1.398,4.564-3.64,5.644l4.299,6.276h-7.041l-3.481-5.274h-1.319v5.274h-6.17V55.858z M90.5,64.639
	c1.477,0,2.373-0.659,2.373-1.793v-0.053c0-1.187-0.923-1.767-2.347-1.767h-2.69v3.613H90.5z"/>
<polygon fill="#3D3D3B" points="100.525,55.858 106.96,55.858 110.915,62.346 114.871,55.858 121.305,55.858 121.305,74.317 
	115.161,74.317 115.161,65.167 110.915,71.733 110.809,71.733 106.564,65.167 106.564,74.317 100.525,74.317 "/>
<path fill="#3D3D3B" d="M129.854,55.726h6.118l7.779,18.591h-6.698l-0.976-2.478h-6.461l-0.949,2.478h-6.593L129.854,55.726z
	 M134.547,67.461l-1.688-4.482l-1.688,4.482H134.547z"/>
<polygon fill="#3D3D3B" points="146.891,61.08 141.458,61.08 141.458,55.857 158.508,55.857 158.508,61.08 153.062,61.08 
	153.062,74.317 146.891,74.317 "/>
<rect x="100.593" y="44.903" fill="#3D3D3B" width="57.915" height="3.92"/>
</svg>
