<?xml version="1.0" encoding="utf-8"?>
<!-- Generator: Adobe Illustrator 16.0.0, SVG Export Plug-In . SVG Version: 6.00 Build 0)  -->
<!DOCTYPE svg PUBLIC "-//W3C//DTD SVG 1.1//EN" "http://www.w3.org/Graphics/SVG/1.1/DTD/svg11.dtd">
<svg version="1.1" xmlns="http://www.w3.org/2000/svg" xmlns:xlink="http://www.w3.org/1999/xlink" x="0px" y="0px"
	 width="595.66px" height="173.319px" viewBox="0 0 595.66 173.319" enable-background="new 0 0 595.66 173.319"
	 xml:space="preserve">
<g id="Calque_1">
	<g>
		<polygon fill="#FFFFFF" points="641.653,206.007 -45.993,206.343 -45.993,-48.556 641.653,-48.892 		"/>
		
			<line fill="none" stroke="#1E1E1C" stroke-width="30.6194" stroke-miterlimit="10" x1="-45.992" y1="-48.556" x2="641.653" y2="-48.556"/>
	</g>
	<g>
		<path fill="#3D3D3B" d="M311.025,94.043h2.061v11.728h-2.061V94.043z"/>
		<path fill="#3D3D3B" d="M315.983,94.043h1.91l6.282,8.108v-8.108h2.027v11.728h-1.726l-6.467-8.344v8.344h-2.027V94.043z"/>
		<path fill="#3D3D3B" d="M331.862,95.952h-3.72v-1.909h9.517v1.909h-3.72v9.818h-2.077V95.952z"/>
		<path fill="#3D3D3B" d="M339.6,94.043h8.695v1.843h-6.635v3.049h5.881v1.843h-5.881v3.15h6.719v1.843H339.6V94.043z"/>
		<path fill="#3D3D3B" d="M350.587,94.043h5.228c1.475,0,2.63,0.436,3.384,1.173c0.62,0.637,0.972,1.508,0.972,2.529v0.033
			c0,1.927-1.155,3.083-2.78,3.553l3.166,4.439h-2.446l-2.882-4.088h-2.58v4.088h-2.061V94.043z M355.663,99.856
			c1.475,0,2.413-0.771,2.413-1.96v-0.034c0-1.256-0.905-1.943-2.43-1.943h-2.999v3.938H355.663z"/>
		<path fill="#3D3D3B" d="M362.462,94.043h1.91l6.282,8.108v-8.108h2.027v11.728h-1.726l-6.467-8.344v8.344h-2.027V94.043z"/>
		<path fill="#3D3D3B" d="M379.614,93.959h1.91l5.16,11.812h-2.179l-1.189-2.831h-5.545l-1.207,2.831h-2.11L379.614,93.959z
			 M382.563,101.113l-2.027-4.691l-2.01,4.691H382.563z"/>
		<path fill="#3D3D3B" d="M391.339,95.952h-3.72v-1.909h9.517v1.909h-3.72v9.818h-2.077V95.952z"/>
		<path fill="#3D3D3B" d="M399.192,94.043h2.061v11.728h-2.061V94.043z"/>
		<path fill="#3D3D3B" d="M403.631,99.94v-0.034c0-3.3,2.547-6.064,6.149-6.064c3.602,0,6.115,2.73,6.115,6.031v0.033
			c0,3.301-2.547,6.065-6.149,6.065C406.145,105.972,403.631,103.24,403.631,99.94z M413.733,99.94v-0.034
			c0-2.278-1.658-4.172-3.987-4.172c-2.328,0-3.954,1.86-3.954,4.139v0.033c0,2.279,1.659,4.155,3.988,4.155
			C412.108,104.062,413.733,102.219,413.733,99.94z"/>
		<path fill="#3D3D3B" d="M418.152,94.043h1.91l6.282,8.108v-8.108h2.027v11.728h-1.726l-6.467-8.344v8.344h-2.027V94.043z"/>
		<path fill="#3D3D3B" d="M435.306,93.959h1.91l5.16,11.812h-2.179l-1.189-2.831h-5.545l-1.207,2.831h-2.11L435.306,93.959z
			 M438.254,101.113l-2.027-4.691l-2.01,4.691H438.254z"/>
		<path fill="#3D3D3B" d="M444.147,94.043h2.061v9.851h6.166v1.877h-8.227V94.043z"/>
		<path fill="#3D3D3B" d="M459.07,94.043h8.695v1.843h-6.635v3.049h5.881v1.843h-5.881v3.15h6.719v1.843h-8.779V94.043z"/>
		<path fill="#3D3D3B" d="M479.977,94.043l-4.089,5.729l4.256,5.998h-2.43l-3.099-4.474l-3.083,4.474h-2.362l4.238-5.965
			l-4.071-5.763h2.43l2.915,4.255l2.933-4.255H479.977z"/>
		<path fill="#3D3D3B" d="M482.033,94.043h2.061v4.875h5.596v-4.875h2.062v11.728h-2.062v-4.942h-5.596v4.942h-2.061V94.043z"/>
		<path fill="#3D3D3B" d="M494.646,94.043h2.061v11.728h-2.061V94.043z"/>
		<path fill="#3D3D3B" d="M499.604,94.043h5.261c1.341,0,2.396,0.368,3.066,1.038c0.52,0.52,0.787,1.156,0.787,1.943v0.034
			c0,1.407-0.804,2.161-1.676,2.613c1.374,0.47,2.329,1.257,2.329,2.849v0.033c0,2.095-1.726,3.217-4.339,3.217h-5.429V94.043z
			 M506.657,97.36c0-0.922-0.737-1.491-2.061-1.491h-2.966v3.116h2.814c1.324,0,2.212-0.52,2.212-1.592V97.36z M504.897,100.728
			h-3.267v3.217h3.418c1.407,0,2.262-0.553,2.262-1.608v-0.033C507.311,101.313,506.523,100.728,504.897,100.728z"/>
		<path fill="#3D3D3B" d="M511.578,94.043h2.061v11.728h-2.061V94.043z"/>
		<path fill="#3D3D3B" d="M519.418,95.952h-3.72v-1.909h9.517v1.909h-3.72v9.818h-2.077V95.952z"/>
		<path fill="#3D3D3B" d="M527.272,94.043h2.061v11.728h-2.061V94.043z"/>
		<path fill="#3D3D3B" d="M531.71,99.94v-0.034c0-3.3,2.547-6.064,6.149-6.064c3.602,0,6.115,2.73,6.115,6.031v0.033
			c0,3.301-2.547,6.065-6.149,6.065C534.224,105.972,531.71,103.24,531.71,99.94z M541.813,99.94v-0.034
			c0-2.278-1.658-4.172-3.987-4.172c-2.328,0-3.954,1.86-3.954,4.139v0.033c0,2.279,1.659,4.155,3.988,4.155
			C540.188,104.062,541.813,102.219,541.813,99.94z"/>
		<path fill="#3D3D3B" d="M546.232,94.043h1.91l6.282,8.108v-8.108h2.027v11.728h-1.726l-6.467-8.344v8.344h-2.027V94.043z"/>
		<path fill="#3D3D3B" d="M310.908,118.043h8.729v1.876h-6.668v3.2h5.914v1.876h-5.914v4.775h-2.061V118.043z"/>
		<path fill="#3D3D3B" d="M321.142,123.94v-0.034c0-3.3,2.547-6.064,6.149-6.064c3.602,0,6.115,2.73,6.115,6.031v0.033
			c0,3.301-2.547,6.065-6.149,6.065C323.655,129.972,321.142,127.24,321.142,123.94z M331.244,123.94v-0.034
			c0-2.278-1.658-4.172-3.987-4.172c-2.328,0-3.954,1.86-3.954,4.139v0.033c0,2.279,1.659,4.155,3.988,4.155
			C329.619,128.062,331.244,126.219,331.244,123.94z"/>
		<path fill="#3D3D3B" d="M335.663,118.043h5.228c1.475,0,2.63,0.436,3.384,1.173c0.62,0.637,0.972,1.508,0.972,2.529v0.033
			c0,1.927-1.155,3.083-2.78,3.553l3.166,4.439h-2.446l-2.882-4.088h-2.58v4.088h-2.061V118.043z M340.739,123.856
			c1.475,0,2.413-0.771,2.413-1.96v-0.034c0-1.256-0.905-1.943-2.43-1.943h-2.999v3.938H340.739z"/>
		<path fill="#3D3D3B" d="M351.809,123.94v-0.034c0-3.334,2.497-6.064,6.049-6.064c2.161,0,3.468,0.754,4.59,1.826l-1.323,1.524
			c-0.938-0.871-1.943-1.458-3.284-1.458c-2.228,0-3.87,1.844-3.87,4.139v0.033c0,2.296,1.626,4.155,3.87,4.155
			c1.441,0,2.362-0.569,3.368-1.508l1.323,1.34c-1.223,1.273-2.563,2.078-4.758,2.078
			C354.355,129.972,351.809,127.308,351.809,123.94z"/>
		<path fill="#3D3D3B" d="M363.936,123.94v-0.034c0-3.3,2.547-6.064,6.149-6.064c3.602,0,6.115,2.73,6.115,6.031v0.033
			c0,3.301-2.547,6.065-6.149,6.065C366.449,129.972,363.936,127.24,363.936,123.94z M374.038,123.94v-0.034
			c0-2.278-1.658-4.172-3.987-4.172c-2.328,0-3.954,1.86-3.954,4.139v0.033c0,2.279,1.659,4.155,3.988,4.155
			C372.413,128.062,374.038,126.219,374.038,123.94z"/>
		<path fill="#3D3D3B" d="M378.457,118.043h1.91l6.282,8.108v-8.108h2.027v11.728h-1.726l-6.467-8.344v8.344h-2.027V118.043z"/>
		<path fill="#3D3D3B" d="M390.667,128.062l1.239-1.475c1.123,0.972,2.262,1.525,3.703,1.525c1.273,0,2.077-0.604,2.077-1.475
			v-0.034c0-0.837-0.469-1.29-2.646-1.792c-2.497-0.604-3.904-1.341-3.904-3.502v-0.033c0-2.011,1.676-3.401,4.004-3.401
			c1.709,0,3.066,0.52,4.256,1.475l-1.105,1.558c-1.056-0.787-2.111-1.206-3.184-1.206c-1.206,0-1.91,0.62-1.91,1.391v0.033
			c0,0.905,0.536,1.308,2.798,1.844c2.48,0.603,3.753,1.49,3.753,3.435v0.033c0,2.194-1.726,3.502-4.188,3.502
			C393.767,129.938,392.074,129.318,390.667,128.062z"/>
		<path fill="#3D3D3B" d="M404.821,119.952h-3.72v-1.909h9.517v1.909h-3.72v9.818h-2.077V119.952z"/>
		<path fill="#3D3D3B" d="M412.559,118.043h5.228c1.475,0,2.63,0.436,3.384,1.173c0.62,0.637,0.972,1.508,0.972,2.529v0.033
			c0,1.927-1.155,3.083-2.781,3.553l3.167,4.439h-2.446l-2.882-4.088h-2.58v4.088h-2.061V118.043z M417.635,123.856
			c1.475,0,2.413-0.771,2.413-1.96v-0.034c0-1.256-0.905-1.943-2.43-1.943h-2.999v3.938H417.635z"/>
		<path fill="#3D3D3B" d="M424.249,124.795v-6.752h2.062v6.668c0,2.178,1.122,3.334,2.965,3.334c1.826,0,2.949-1.089,2.949-3.25
			v-6.752h2.061v6.651c0,3.501-1.978,5.261-5.043,5.261C426.192,129.955,424.249,128.195,424.249,124.795z"/>
		<path fill="#3D3D3B" d="M436.358,123.94v-0.034c0-3.334,2.496-6.064,6.049-6.064c2.161,0,3.468,0.754,4.59,1.826l-1.323,1.524
			c-0.938-0.871-1.943-1.458-3.284-1.458c-2.228,0-3.87,1.844-3.87,4.139v0.033c0,2.296,1.626,4.155,3.87,4.155
			c1.441,0,2.363-0.569,3.368-1.508l1.323,1.34c-1.223,1.273-2.563,2.078-4.758,2.078
			C438.905,129.972,436.358,127.308,436.358,123.94z"/>
		<path fill="#3D3D3B" d="M451.887,119.952h-3.72v-1.909h9.517v1.909h-3.72v9.818h-2.077V119.952z"/>
		<path fill="#3D3D3B" d="M459.74,118.043h2.061v11.728h-2.061V118.043z"/>
		<path fill="#3D3D3B" d="M464.179,123.94v-0.034c0-3.3,2.547-6.064,6.149-6.064c3.602,0,6.115,2.73,6.115,6.031v0.033
			c0,3.301-2.547,6.065-6.149,6.065C466.692,129.972,464.179,127.24,464.179,123.94z M474.281,123.94v-0.034
			c0-2.278-1.658-4.172-3.987-4.172c-2.328,0-3.954,1.86-3.954,4.139v0.033c0,2.279,1.659,4.155,3.988,4.155
			C472.656,128.062,474.281,126.219,474.281,123.94z"/>
		<path fill="#3D3D3B" d="M478.7,118.043h1.91l6.282,8.108v-8.108h2.027v11.728h-1.726l-6.467-8.344v8.344H478.7V118.043z"/>
		<path fill="#3D3D3B" d="M315.063,141.959h1.91l5.16,11.812h-2.179l-1.189-2.831h-5.545l-1.207,2.831h-2.11L315.063,141.959z
			 M318.012,149.113l-2.027-4.691l-2.01,4.691H318.012z"/>
		<path fill="#3D3D3B" d="M323.905,142.043h1.91l6.282,8.108v-8.108h2.027v11.728h-1.726l-6.467-8.344v8.344h-2.027V142.043z"/>
		<path fill="#3D3D3B" d="M336.903,142.043h4.373c3.686,0,6.232,2.529,6.232,5.83v0.033c0,3.301-2.547,5.864-6.232,5.864h-4.373
			V142.043z M338.964,143.919v7.975h2.313c2.463,0,4.071-1.658,4.071-3.953v-0.034c0-2.295-1.608-3.987-4.071-3.987H338.964z"/>
		<path fill="#3D3D3B" d="M354.674,142.043h2.061v11.728h-2.061V142.043z"/>
		<path fill="#3D3D3B" d="M359.631,142.043h1.91l6.282,8.108v-8.108h2.027v11.728h-1.726l-6.467-8.344v8.344h-2.027V142.043z"/>
		<path fill="#3D3D3B" d="M372.629,142.043h8.729v1.876h-6.668v3.2h5.914v1.876h-5.914v4.775h-2.061V142.043z"/>
		<path fill="#3D3D3B" d="M383.382,142.043h5.228c1.475,0,2.63,0.436,3.384,1.173c0.62,0.637,0.972,1.508,0.972,2.529v0.033
			c0,1.927-1.155,3.083-2.78,3.553l3.166,4.439h-2.446l-2.882-4.088h-2.58v4.088h-2.061V142.043z M388.458,147.856
			c1.475,0,2.413-0.771,2.413-1.96v-0.034c0-1.256-0.905-1.943-2.43-1.943h-2.999v3.938H388.458z"/>
		<path fill="#3D3D3B" d="M399.412,141.959h1.91l5.16,11.812h-2.179l-1.189-2.831h-5.545l-1.207,2.831h-2.11L399.412,141.959z
			 M402.36,149.113l-2.027-4.691l-2.01,4.691H402.36z"/>
		<path fill="#3D3D3B" d="M407.467,152.062l1.239-1.475c1.123,0.972,2.262,1.525,3.703,1.525c1.273,0,2.077-0.604,2.077-1.475
			v-0.034c0-0.837-0.469-1.29-2.647-1.792c-2.496-0.604-3.903-1.341-3.903-3.502v-0.033c0-2.011,1.676-3.401,4.004-3.401
			c1.709,0,3.066,0.52,4.256,1.475l-1.105,1.558c-1.056-0.787-2.111-1.206-3.184-1.206c-1.206,0-1.91,0.62-1.91,1.391v0.033
			c0,0.905,0.536,1.308,2.798,1.844c2.48,0.603,3.753,1.49,3.753,3.435v0.033c0,2.194-1.726,3.502-4.188,3.502
			C410.566,153.938,408.874,153.318,407.467,152.062z"/>
		<path fill="#3D3D3B" d="M421.621,143.952h-3.72v-1.909h9.517v1.909h-3.72v9.818h-2.077V143.952z"/>
		<path fill="#3D3D3B" d="M429.357,142.043h5.228c1.475,0,2.63,0.436,3.384,1.173c0.62,0.637,0.972,1.508,0.972,2.529v0.033
			c0,1.927-1.155,3.083-2.781,3.553l3.167,4.439h-2.446l-2.882-4.088h-2.58v4.088h-2.061V142.043z M434.434,147.856
			c1.475,0,2.413-0.771,2.413-1.96v-0.034c0-1.256-0.905-1.943-2.43-1.943h-2.999v3.938H434.434z"/>
		<path fill="#3D3D3B" d="M441.049,148.795v-6.752h2.062v6.668c0,2.178,1.122,3.334,2.965,3.334c1.826,0,2.949-1.089,2.949-3.25
			v-6.752h2.061v6.651c0,3.501-1.977,5.261-5.043,5.261C442.992,153.955,441.049,152.195,441.049,148.795z"/>
		<path fill="#3D3D3B" d="M453.158,147.94v-0.034c0-3.334,2.497-6.064,6.049-6.064c2.161,0,3.468,0.754,4.59,1.826l-1.323,1.524
			c-0.938-0.871-1.943-1.458-3.284-1.458c-2.228,0-3.87,1.844-3.87,4.139v0.033c0,2.296,1.626,4.155,3.87,4.155
			c1.441,0,2.362-0.569,3.368-1.508l1.323,1.34c-1.223,1.273-2.563,2.078-4.758,2.078
			C455.705,153.972,453.158,151.308,453.158,147.94z"/>
		<path fill="#3D3D3B" d="M468.686,143.952h-3.72v-1.909h9.517v1.909h-3.72v9.818h-2.077V143.952z"/>
		<path fill="#3D3D3B" d="M476.238,148.795v-6.752h2.062v6.668c0,2.178,1.122,3.334,2.965,3.334c1.826,0,2.949-1.089,2.949-3.25
			v-6.752h2.061v6.651c0,3.501-1.977,5.261-5.043,5.261C478.182,153.955,476.238,152.195,476.238,148.795z"/>
		<path fill="#3D3D3B" d="M488.867,142.043h5.228c1.475,0,2.63,0.436,3.384,1.173c0.62,0.637,0.972,1.508,0.972,2.529v0.033
			c0,1.927-1.155,3.083-2.781,3.553l3.167,4.439h-2.446l-2.882-4.088h-2.58v4.088h-2.061V142.043z M493.943,147.856
			c1.475,0,2.413-0.771,2.413-1.96v-0.034c0-1.256-0.905-1.943-2.43-1.943h-2.999v3.938H493.943z"/>
		<path fill="#3D3D3B" d="M500.742,142.043h8.695v1.843h-6.635v3.049h5.881v1.843h-5.881v3.15h6.719v1.843h-8.779V142.043z"/>
	</g>
	<g>
		<g>
			<g>
				<g>
					<path fill="#3D3D3B" d="M311.477,0.167h10.082c5.895,0,9.713,3.048,9.713,8.206V8.44c0,5.56-4.254,8.474-10.048,8.474h-3.249
						v6.699h-6.498V0.167z M321.09,11.823c2.277,0,3.718-1.239,3.718-3.082V8.675c0-2.009-1.44-3.048-3.752-3.048h-3.081v6.196
						H321.09z"/>
					<path fill="#3D3D3B" d="M339.814,0h6.264l9.98,23.613h-6.967l-1.674-4.22h-9.077l-1.675,4.22h-6.799L339.814,0z
						 M345.509,14.335l-2.612-6.632l-2.646,6.632H345.509z"/>
					<path fill="#3D3D3B" d="M358.341,0.167h11.087c3.583,0,6.062,0.938,7.636,2.512c1.374,1.373,2.077,3.148,2.077,5.459v0.067
						c0,3.617-1.909,5.995-4.823,7.234l5.594,8.172h-7.47l-4.722-7.101h-2.881v7.101h-6.498V0.167z M369.159,11.421
						c2.178,0,3.483-1.072,3.483-2.78V8.574c0-1.875-1.373-2.813-3.517-2.813h-4.287v5.66H369.159z"/>
					<path fill="#3D3D3B" d="M382.594,0.167h6.497v23.445h-6.497V0.167z"/>
					<path fill="#3D3D3B" d="M391.605,20.129l3.617-4.32c2.345,1.842,4.89,2.813,7.603,2.813c1.775,0,2.713-0.603,2.713-1.608
						v-0.067c0-1.005-0.771-1.507-3.985-2.278c-4.99-1.139-8.843-2.545-8.843-7.335V7.268c0-4.354,3.45-7.502,9.077-7.502
						c3.985,0,7.101,1.072,9.646,3.115l-3.248,4.589c-2.144-1.541-4.488-2.311-6.565-2.311c-1.574,0-2.344,0.636-2.344,1.507v0.067
						c0,1.072,0.804,1.541,4.086,2.277c5.358,1.172,8.708,2.914,8.708,7.302v0.067c0,4.79-3.784,7.636-9.479,7.636
						C398.438,24.015,394.519,22.708,391.605,20.129z"/>
				</g>
				<g>
					<path fill="#407285" d="M310.396,52.71l7.899-6.03c1.96-1.538,2.744-2.533,2.744-3.799c0-1.357-0.935-2.171-2.382-2.171
						c-1.418,0-2.533,0.844-4.191,2.744l-3.95-3.286c2.262-2.925,4.523-4.523,8.594-4.523c4.613,0,7.778,2.744,7.778,6.724v0.061
						c0,3.377-1.748,5.125-4.884,7.387l-3.618,2.532h8.714v4.764h-16.704V52.71z"/>
					<path fill="#407285" d="M328.756,53.795l3.708-3.678c1.508,1.538,3.076,2.412,5.035,2.412c1.659,0,2.684-0.844,2.684-2.141
						v-0.061c0-1.357-1.206-2.171-3.437-2.171h-2.473l-0.814-3.045l4.824-4.372h-8.05v-4.734h15.227v4.161l-5.036,4.342
						c3.016,0.663,5.458,2.321,5.458,5.939v0.061c0,4.281-3.438,7.025-8.141,7.025C333.67,57.534,330.836,56.057,328.756,53.795z"/>
					<path fill="#407285" d="M354.194,49.23h8.962v3.241h-8.962V49.23z"/>
					<path fill="#407285" d="M370.489,52.71l7.899-6.03c1.96-1.538,2.744-2.533,2.744-3.799c0-1.357-0.935-2.171-2.382-2.171
						c-1.418,0-2.533,0.844-4.191,2.744l-3.95-3.286c2.262-2.925,4.523-4.523,8.594-4.523c4.613,0,7.778,2.744,7.778,6.724v0.061
						c0,3.377-1.748,5.125-4.884,7.387l-3.618,2.532h8.714v4.764h-16.704V52.71z"/>
					<path fill="#407285" d="M389.151,51.292v-0.06c0-2.563,1.326-4.101,3.588-5.065c-1.599-0.905-2.865-2.322-2.865-4.613v-0.061
						c0-3.347,3.196-5.849,7.931-5.849c4.733,0,7.96,2.502,7.96,5.849v0.061c0,2.292-1.267,3.708-2.895,4.613
						c2.141,0.995,3.618,2.412,3.618,5.005v0.061c0,3.799-3.618,6.241-8.684,6.241S389.151,54.971,389.151,51.292z M400.85,50.72
						v-0.061c0-1.387-1.236-2.321-3.045-2.321c-1.779,0-3.046,0.935-3.046,2.321v0.061c0,1.267,1.086,2.382,3.046,2.382
						S400.85,51.986,400.85,50.72z M400.428,42.247v-0.06c0-1.176-0.995-2.231-2.623-2.231c-1.599,0-2.594,1.055-2.594,2.231v0.06
						c0,1.327,1.025,2.322,2.594,2.322C399.372,44.569,400.428,43.574,400.428,42.247z"/>
					<path fill="#407285" d="M429.385,35.855h5.639l8.984,21.257h-6.271l-1.507-3.799h-8.172l-1.507,3.799h-6.121L429.385,35.855z
						 M434.511,48.76l-2.352-5.97l-2.383,5.97H434.511z"/>
					<path fill="#407285" d="M446.057,36.006h9.076c5.307,0,8.743,2.744,8.743,7.387v0.06c0,5.005-3.829,7.628-9.045,7.628h-2.925
						v6.03h-5.85V36.006z M454.71,46.499c2.051,0,3.348-1.116,3.348-2.774v-0.061c0-1.809-1.297-2.744-3.377-2.744h-2.774v5.578
						H454.71z"/>
					<path fill="#407285" d="M466.347,36.006h9.98c3.227,0,5.457,0.844,6.874,2.261c1.236,1.236,1.87,2.834,1.87,4.915v0.061
						c0,3.256-1.719,5.397-4.342,6.513l5.035,7.357h-6.724l-4.252-6.392h-2.593v6.392h-5.85V36.006z M476.086,46.137
						c1.96,0,3.136-0.965,3.136-2.502v-0.061c0-1.688-1.236-2.533-3.166-2.533h-3.859v5.096H476.086z"/>
					<path fill="#407285" d="M488.175,36.006h5.849v21.106h-5.849V36.006z"/>
					<path fill="#407285" d="M497.882,36.006h5.85v15.98h10.222v5.125h-16.071V36.006z"/>
					<path fill="#407285" d="M523.96,52.71l7.899-6.03c1.96-1.538,2.744-2.533,2.744-3.799c0-1.357-0.935-2.171-2.382-2.171
						c-1.418,0-2.533,0.844-4.191,2.744l-3.95-3.286c2.262-2.925,4.523-4.523,8.594-4.523c4.613,0,7.778,2.744,7.778,6.724v0.061
						c0,3.377-1.748,5.125-4.884,7.387l-3.618,2.532h8.714v4.764H523.96V52.71z"/>
					<path fill="#407285" d="M543.014,46.619v-0.061c0-5.97,3.799-10.975,9.799-10.975s9.739,4.944,9.739,10.915v0.06
						c0,5.97-3.77,10.976-9.799,10.976C546.752,57.534,543.014,52.589,543.014,46.619z M556.672,46.619v-0.061
						c0-3.377-1.567-5.819-3.919-5.819c-2.322,0-3.859,2.382-3.859,5.759v0.06c0,3.377,1.567,5.789,3.919,5.789
						C555.165,52.348,556.672,49.966,556.672,46.619z"/>
					<path fill="#407285" d="M568.701,41.282l-3.559,0.844l-1.115-4.522l6.181-1.749h4.252v21.257h-5.759V41.282z"/>
					<path fill="#407285" d="M577.353,51.292v-0.06c0-2.563,1.327-4.101,3.589-5.065c-1.599-0.905-2.864-2.322-2.864-4.613v-0.061
						c0-3.347,3.195-5.849,7.93-5.849c4.733,0,7.96,2.502,7.96,5.849v0.061c0,2.292-1.267,3.708-2.895,4.613
						c2.141,0.995,3.618,2.412,3.618,5.005v0.061c0,3.799-3.618,6.241-8.684,6.241S577.353,54.971,577.353,51.292z M589.052,50.72
						v-0.061c0-1.387-1.236-2.321-3.045-2.321c-1.779,0-3.046,0.935-3.046,2.321v0.061c0,1.267,1.086,2.382,3.046,2.382
						C587.966,53.102,589.052,51.986,589.052,50.72z M588.63,42.247v-0.06c0-1.176-0.995-2.231-2.623-2.231
						c-1.599,0-2.594,1.055-2.594,2.231v0.06c0,1.327,1.025,2.322,2.594,2.322C587.574,44.569,588.63,43.574,588.63,42.247z"/>
				</g>
				<rect x="309.402" y="-4.861" fill="none" width="293.927" height="104.938"/>
			</g>
		</g>
		
			<line fill="none" stroke="#3D3D3B" stroke-width="6.3262" stroke-miterlimit="10" x1="309.4" y1="75.556" x2="595.66" y2="75.556"/>
		
			<line fill="none" stroke="#3D3D3B" stroke-width="6.3262" stroke-miterlimit="10" x1="309.4" y1="169.759" x2="595.66" y2="169.759"/>
		<polygon display="none" fill="#585857" points="98.729,166.628 50.111,90.847 126.331,42.922 174.945,118.706 		"/>
		<g display="none">
			<g display="inline">
				<polygon fill="#407285" points="122.205,126.284 32.38,149.585 9.084,59.755 98.913,36.46 				"/>
				<rect x="9.085" y="36.46" fill="none" width="113.119" height="113.123"/>
			</g>
		</g>
		<g display="none">
			<g display="inline">
				
					<rect x="23.251" y="25.552" transform="matrix(-0.6687 0.7435 -0.7435 -0.6687 193.8528 77.5313)" fill="#FFDB06" width="112.806" height="112.803"/>
				<rect y="2.301" fill="none" width="159.308" height="159.31"/>
			</g>
		</g>
		<g display="none">
			<g display="inline">
				
					<rect x="18.309" y="78.576" transform="matrix(0.9738 0.2275 -0.2275 0.9738 25.628 -7.8747)" fill="#C7C6C7" width="57.335" height="57.335"/>
				<rect x="12.539" y="72.806" fill="none" width="68.874" height="68.875"/>
			</g>
		</g>
	</g>
	<g display="none">
		<path display="inline" fill="#FFFFFF" d="M28.295,90.103h9.98v29.854h-9.98V90.103z"/>
		<path display="inline" fill="#FFFFFF" d="M41.774,90.103h9.34l10.62,13.178V90.103h9.894v29.854h-8.871l-11.089-13.775v13.775
			h-9.894V90.103z"/>
		<path display="inline" fill="#FFFFFF" d="M82.679,98.547h-8.786v-8.444h27.551v8.444h-8.786v21.409h-9.98V98.547z"/>
		<path display="inline" fill="#FFFFFF" d="M103.709,90.103h25.461v8.188h-15.652v3.027h14.585v7.208h-14.585v3.241h15.865v8.188
			h-25.674V90.103z"/>
		<path display="inline" fill="#FFFFFF" d="M132.075,90.103h14.585c5.289,0,8.658,1.322,10.748,3.411
			c1.791,1.792,2.729,4.01,2.729,7.08v0.085c0,4.351-2.26,7.379-5.885,9.127l6.952,10.15h-11.387l-5.63-8.529h-2.132v8.529h-9.979
			V90.103z M146.362,104.304c2.388,0,3.838-1.065,3.838-2.899v-0.086c0-1.919-1.493-2.857-3.796-2.857h-4.35v5.843H146.362z"/>
	</g>
	<g display="none">
		<path display="inline" fill="#3D3D3B" d="M162.573,90.103h10.406l6.397,10.491l6.397-10.491h10.406v29.854h-9.937v-14.799
			l-6.867,10.619h-0.17l-6.867-10.619v14.799h-9.766V90.103z"/>
		<path display="inline" fill="#3D3D3B" d="M210.004,89.889h9.894l12.582,30.067h-10.833l-1.578-4.009H209.62l-1.536,4.009h-10.662
			L210.004,89.889z M217.595,108.867l-2.729-7.25l-2.729,7.25H217.595z"/>
		<path display="inline" fill="#3D3D3B" d="M237.559,98.547h-8.786v-8.444h27.551v8.444h-8.786v21.409h-9.98V98.547z"/>
	</g>
	<g display="none">
		<line display="inline" fill="none" x1="162.684" y1="75.556" x2="256.346" y2="75.556"/>
	</g>
</g>
<g id="Calque_2">
	<polygon fill="#595958" points="99.343,165.307 50.963,89.89 126.813,42.197 175.192,117.614 	"/>
	<path fill="#437386" d="M13.403,71.551l-3.269-12.602l19.049-4.942L13.403,71.551z M33.316,148.345l-4.481-17.282l31.355,7.324
		l2.575,2.316L33.316,148.345"/>
	<polygon fill="#223336" points="114.194,127.363 121.245,119.522 122.707,125.156 	"/>
	<path fill="#FFDB0B" d="M104.788,56.044l-5.259-20.28L29.183,54.007L76.162,1.771l47.296,42.535L104.788,56.044z M153.446,83.713
		L134.59,54.316l25.039,22.521L153.446,83.713 M19.563,101.851L1.093,85.24l12.31-13.689l6.964,26.857L19.563,101.851
		 M84.566,160.313l-21.801-19.609l3.478-0.902l2.891,0.677l0.355-1.516l11.107-2.883l10.727,16.72L84.566,160.313"/>
	<path fill="#5A5023" d="M121.245,119.522l-16.457-63.478l18.669-11.74l11.132,10.012l18.857,29.396L121.245,119.522z
		 M91.323,152.799l-10.727-16.72l33.6-8.716L91.323,152.799"/>
	<path fill="#4D6735" d="M20.367,98.408l-6.966-26.857l15.779-17.542l70.347-18.243l5.259,20.279L65.171,80.956L26.55,71.935
		L20.367,98.408z M69.489,138.962l3.458-14.806l7.65,11.923L69.489,138.962 M62.765,140.707l-2.575-2.317l6.053,1.414
		L62.765,140.707"/>
	<polygon fill="#25321F" points="80.594,136.079 72.946,124.156 82.114,84.91 65.171,80.956 104.788,56.044 121.246,119.522 
		114.196,127.363 	"/>
	<polygon fill="#C8C6C7" points="28.833,131.063 13.571,127.498 19.563,101.851 21.776,103.84 	"/>
	<polygon fill="#39616D" points="60.19,138.39 28.835,131.063 21.776,103.84 	"/>
	<path fill="#C7AC29" d="M21.775,103.84l-2.211-1.989l0.804-3.442L21.775,103.84z M69.134,140.478l-2.892-0.677l3.246-0.839
		L69.134,140.478"/>
	<polygon fill="#425933" points="66.242,139.801 60.188,138.387 21.775,103.84 20.367,98.408 26.55,71.935 65.173,80.956 
		50.963,89.89 72.948,124.156 69.487,138.962 	"/>
	<polygon fill="#232C1C" points="72.946,124.156 50.963,89.89 65.173,80.956 82.113,84.914 	"/>
	<rect x="29.252" y="89.147" fill="#FFFFFF" width="9.931" height="29.709"/>
	<polygon fill="#FFFFFF" points="42.667,89.147 51.958,89.147 62.526,102.262 62.526,89.147 72.375,89.147 72.375,118.856 
		63.548,118.856 52.511,105.147 52.511,118.856 42.667,118.856 	"/>
	<polygon fill="#FFFFFF" points="83.373,97.553 74.628,97.553 74.628,89.147 102.048,89.147 102.048,97.553 93.303,97.553 
		93.303,118.856 83.373,118.856 	"/>
	<polygon fill="#FFFFFF" points="104.298,89.147 129.639,89.147 129.639,97.295 114.061,97.295 114.061,100.31 128.575,100.31 
		128.575,107.483 114.061,107.483 114.061,110.708 129.85,110.708 129.85,118.856 104.298,118.856 	"/>
	<path fill="#FFFFFF" d="M132.53,89.147h14.516c5.261,0,8.614,1.317,10.694,3.398c1.784,1.778,2.717,3.988,2.717,7.044v0.082
		c0,4.332-2.25,7.347-5.859,9.084l6.92,10.101h-11.332l-5.603-8.487h-2.124v8.487h-9.93V89.147z M146.746,103.28
		c2.378,0,3.819-1.059,3.819-2.885v-0.086c0-1.911-1.485-2.845-3.777-2.845h-4.33v5.815H146.746z"/>
	<polygon fill="#3E3D3C" points="162.88,89.147 173.236,89.147 179.602,99.59 185.969,89.147 196.325,89.147 196.325,118.856 
		186.436,118.856 186.436,104.129 179.602,114.697 179.432,114.697 172.6,104.129 172.6,118.856 162.88,118.856 	"/>
	<path fill="#3E3D3C" d="M210.083,88.938h9.847l12.518,29.919H221.67l-1.572-3.99H209.7l-1.528,3.99h-10.611L210.083,88.938z
		 M217.636,107.822l-2.716-7.214l-2.717,7.214H217.636z"/>
	<polygon fill="#3E3D3C" points="237.503,97.553 228.758,97.553 228.758,89.147 256.199,89.147 256.199,97.553 247.435,97.553 
		247.435,118.856 237.503,118.856 	"/>
	<rect x="162.989" y="71.516" fill="#3E3D3C" width="93.209" height="6.31"/>
</g>
</svg>
